<svg width="532" height="119" viewBox="0 0 532 119" fill="none" xmlns="http://www.w3.org/2000/svg">
<path d="M160.056 73.5556L150.012 1.30176H134L149.503 92.4328H173.012L188.514 1.30176H172.502L162.531 73.5556C162.24 75.7688 160.347 75.7688 160.056 73.5556Z" fill="white"/>
<path d="M198.893 65.8749H225.677V59.8862C225.677 37.3639 218.69 26.0376 205.88 26.0376C193.07 26.0376 185.355 37.3639 185.355 59.8862C185.355 82.2784 193.07 93.7349 205.88 93.7349C216.215 93.7349 223.202 86.3142 225.531 71.7333H211.63C210.392 75.5087 208.427 77.5917 205.88 77.5917C201.586 77.5917 199.548 73.2955 198.893 65.8749ZM199.038 52.8561C199.766 46.0864 201.804 42.1808 205.88 42.1808C209.956 42.1808 211.557 46.0864 212.139 52.8561H199.038Z" fill="white"/>
<path d="M251.722 93.735C261.766 93.735 268.898 87.7464 268.898 69.39V58.5845H254.342V69.2599C254.342 72.9051 253.032 74.8579 251.503 74.8579C249.902 74.8579 248.592 72.9051 248.592 69.2599V45.8262H268.898V27.3396H241.023C240.513 27.3396 239.931 26.4283 239.931 25.3868C239.931 24.4755 240.513 23.434 241.023 23.434C245.972 23.434 248.592 18.7473 248.592 10.4153H234.035C234.035 21.8717 231.997 27.3396 227.485 27.3396V45.8262H234.035V69.39C234.035 87.7464 241.168 93.735 251.722 93.735Z" fill="white"/>
<path d="M287.499 62.62H272.214C272.214 85.9235 280.366 93.7347 294.704 93.7347C307.514 93.7347 315.593 85.9235 315.593 64.703C315.593 29.8128 288.008 44.0033 288.008 27.2091C288.008 22.3922 290.774 19.6583 294.413 19.6583C298.562 19.6583 300.891 23.8242 300.891 31.1147H316.175C316.175 10.2848 309.115 0 293.758 0C280.221 0 272.724 10.2848 272.724 28.3808C272.724 64.703 300.454 49.8617 300.454 65.8747C300.454 71.0822 297.616 73.8161 294.195 73.8161C288.736 73.8161 287.499 68.7388 287.499 62.62Z" fill="white"/>
<path d="M339.799 86.9653L332.957 27.3396H317.673L327.135 87.2257H339.726L339.071 92.4332C338.27 97.7708 336.96 100.505 334.777 100.505C332.739 100.505 331.574 99.2029 331.283 95.818H317.382C317.382 111.05 324.151 118.471 334.85 118.471C343.802 118.471 349.697 110.399 352.609 92.4332L362.798 27.3396H347.514L339.799 86.9653Z" fill="white"/>
<path d="M400.156 72.7748C400.156 46.0864 377.885 56.1108 377.885 45.9562C377.885 42.8317 379.413 41.3997 381.742 41.3997C385.527 41.3997 386.4 44.6544 386.4 48.56H399.865C399.865 33.4583 394.698 26.0376 381.233 26.0376C370.679 26.0376 364.347 33.4583 364.347 46.6072C364.347 72.7748 386.255 64.0522 386.255 73.4257C386.255 76.5502 384.29 78.3728 382.033 78.3728C378.176 78.3728 377.448 75.1181 377.448 71.3427H363.547C363.547 88.1369 370.825 93.7349 382.688 93.7349C393.388 93.7349 400.156 88.1369 400.156 72.7748Z" fill="white"/>
<path d="M428.612 1.30176H404.667V92.4328H419.951V61.1878H428.612C440.694 61.1878 447.39 49.471 447.39 31.2448C447.39 13.0186 440.694 1.30176 428.612 1.30176ZM419.951 40.3579V22.1317H426.72C430.941 22.1317 432.834 24.8656 432.834 31.2448C432.834 37.624 430.941 40.3579 426.72 40.3579H419.951Z" fill="white"/>
<path d="M459.819 55.1995C461.566 43.8732 462.657 38.4054 464.914 27.3395H450.575V92.433H465.132V56.1108C465.132 50.7732 466.66 47.5185 469.281 47.5185C471.755 47.5185 472.92 50.2524 472.92 55.0693V63.2711H487.112V48.0392C487.112 36.7129 484.638 26.0376 477.141 26.0376C470.955 26.0376 464.55 34.63 462.002 55.1995C461.857 56.3712 461.347 57.2825 460.692 57.2825C460.037 57.2825 459.673 56.5014 459.819 55.1995Z" fill="white"/>
<path d="M510.747 93.7349C523.994 93.7349 532 82.2784 532 59.8862C532 37.3639 523.994 26.0376 510.747 26.0376C497.428 26.0376 489.422 37.3639 489.422 59.8862C489.422 82.2784 497.428 93.7349 510.747 93.7349ZM503.979 59.8862C503.979 51.2939 506.381 45.9562 510.747 45.9562C515.042 45.9562 517.443 51.2939 517.443 59.8862C517.443 68.4786 515.042 73.8163 510.747 73.8163C506.381 73.8163 503.979 68.4786 503.979 59.8862Z" fill="white"/>
<path d="M53.6072 0.308234C34.2144 2.3063 17.4984 13.0338 7.83088 29.6779C3.3245 37.418 0.878726 45.4296 0.166179 54.6634C-0.469336 62.869 0.724662 71.5015 3.63263 79.9205C4.53775 82.5587 7.6383 88.7469 9.41004 91.4627C17.9028 104.46 31.0176 113.713 45.827 117.147C50.9881 118.33 52.6443 118.505 58.3255 118.524C61.1371 118.524 63.9295 118.446 64.5265 118.369L65.6435 118.214L64.6806 116.759C60.906 111.133 59.7698 103.994 61.5223 96.9914C61.9845 95.1485 63.2363 91.8701 63.8525 90.9196C64.0066 90.6674 64.1029 90.4346 64.0644 90.3958C64.0258 90.3764 63.4866 89.9302 62.8511 89.4259C62.2156 88.9215 61.2912 88.1068 60.7712 87.6024L59.8661 86.7295L59.2113 87.389C55.8989 90.8226 52.9332 94.0816 51.9703 95.3813C49.2164 99.067 47.9261 103.005 47.9261 107.777C47.9261 110.279 48.1572 110.144 45.0374 109.426C41.9369 108.708 41.3784 108.495 41.3784 108.049C41.3591 106.827 40.9354 103.781 40.6081 102.539C39.5489 98.6985 37.989 96.3706 33.1937 91.5597C31.1716 89.5229 29.0532 87.2532 28.4948 86.5161C27.1082 84.6538 25.4905 81.2978 24.8742 78.9506C24.3928 77.1465 24.3543 76.7391 24.3543 73.034C24.3735 68.9796 24.4698 68.2231 25.4905 64.9253C25.7409 64.1688 25.3172 64.4791 24.1232 66.0116C21.6581 69.1154 20.0212 72.0252 18.5383 75.905C17.2288 79.3191 15.9578 84.5956 15.9578 86.6519C15.9578 87.0592 15.9 87.389 15.823 87.389C15.5534 87.389 13.6661 83.9942 12.5106 81.453C9.02488 73.7711 7.7731 67.8157 7.7731 59.0669C7.79236 53.6935 8.0042 51.579 9.00562 47.4083L9.52559 45.1968L9.17894 44.0329C7.79236 39.4936 9.23672 33.2084 12.7224 28.6497C15.2645 25.3132 19.4627 22.287 23.4877 20.8903C24.8742 20.4053 25.4712 20.0367 27.2045 18.64C34.5803 12.704 42.7457 9.25104 52.8369 7.81553C55.456 7.42756 62.7163 7.50515 65.4509 7.91253C72.5571 9.01825 79.1049 11.2879 84.6319 14.5469C88.6954 16.9717 92.3929 19.9009 95.8016 23.3927C100.135 27.8738 102.812 31.7147 105.354 37.0882C108.685 44.1299 110.322 51.5402 110.322 59.4549C110.322 70.8807 107.01 81.259 100.674 89.7169C98.7096 92.3163 96.8993 94.198 96.7645 93.7712C96.2253 92.2581 95.8401 91.2687 95.7631 91.2687C95.7053 91.2687 94.7809 91.6955 93.7025 92.2193C86.4807 95.7498 77.7568 96.002 70.3617 92.9176C69.4566 92.5491 68.6478 92.2387 68.5515 92.2387C68.0508 92.2387 66.3561 96.487 65.7976 99.1252C65.4894 100.638 65.4894 105.391 65.8168 106.885C66.4909 110.182 67.8582 113.034 69.8032 115.265C71.5557 117.263 71.3824 117.224 74.2519 116.429C83.7268 113.829 91.7382 109.387 99.3258 102.539C106.066 96.4482 112.152 86.9234 115.021 77.9806C119.874 62.7721 118.776 46.9233 111.882 33.1114C106.297 21.9184 97.477 12.898 86.2496 6.92319C80.087 3.64481 73.6934 1.60795 66.2983 0.560417C63.7755 0.21124 56.053 0.0560508 53.6072 0.308234Z" fill="white"/>
<path d="M39.7415 20.8511C38.7978 21.0451 37.5075 21.3943 36.8913 21.6077C35.6973 22.0345 33.0011 23.47 32.8086 23.7803C32.7315 23.8773 32.019 23.9549 31.2101 23.9549C26.0682 23.9743 19.9442 26.9423 16.7474 30.9967C12.2795 36.6029 12.4143 43.2372 17.094 48.9405C17.8643 49.891 20.1753 51.8891 20.4834 51.8891C20.599 51.8891 20.9071 50.4342 21.2152 48.4361C22.1781 42.1121 23.1603 38.4652 24.9898 34.5466C26.0297 32.2964 26.4149 31.9084 25.7794 33.7125C24.855 36.3701 24.3735 42.8881 24.7972 47.0976C25.4905 53.9841 27.8015 59.9395 30.7479 62.4614C31.9227 63.4895 33.0011 64.0714 34.6766 64.6534L36.275 65.1966L36.4098 66.4963C36.8335 70.764 39.4141 73.7514 43.2657 74.4304C48.0224 75.2451 52.1051 71.9667 52.7791 66.7485C52.8947 65.8173 53.0873 65.022 53.2028 64.9832C53.3184 64.9444 54.1272 64.731 55.0131 64.4788C56.8233 63.9745 56.7078 64.2266 56.3611 61.472C56.1878 59.9201 56.0915 59.6485 55.8412 59.7455C55.0901 60.0365 53.3761 60.4245 52.8177 60.4245C50.1601 60.4245 46.8669 57.8833 46.0774 55.2256C45.6729 53.8677 45.7114 53.4992 46.347 53.3828C47.2136 53.2082 48.7542 52.0442 49.2164 51.2101C50.9304 48.1451 47.5795 45.0607 43.4197 45.8367C41.3399 46.2246 40.0303 47.4856 39.8763 49.2314C39.7415 50.9967 40.7621 52.471 42.7842 53.3052C43.2849 53.5185 43.6894 53.8095 43.6894 53.9647C43.6894 54.1005 43.516 54.7213 43.3042 55.3032C42.4954 57.6311 40.4347 59.5515 38.1045 60.1529C36.0439 60.6767 34.3107 60.0947 32.7123 58.3488C30.7287 56.1568 30.4206 52.3934 31.9805 49.2896C32.6352 47.9705 34.3299 45.6815 36.0054 43.8386C40.7236 38.6203 42.0139 35.8657 42.5339 29.7745C42.7265 27.3885 42.765 21.2973 42.5724 20.6959C42.4761 20.3856 41.8406 20.4244 39.7415 20.8511ZM35.2736 36.3895C36.3906 37.6116 35.5625 39.3381 33.8292 39.3381C33.4056 39.3381 33.0782 39.1829 32.6738 38.7367C32.0382 37.9996 31.9805 37.3012 32.5004 36.4283C33.1167 35.439 34.3685 35.4002 35.2736 36.3895ZM48.1187 63.3731C48.812 63.7029 49.3897 63.9939 49.4283 64.0133C49.5438 64.1102 48.8698 66.6903 48.5039 67.505C47.4062 69.9105 44.9219 70.8222 42.7072 69.6001C41.2628 68.8241 40.377 67.2334 39.934 64.6728L39.7992 63.9745L41.051 63.3731C41.8598 63.0045 42.7072 62.3838 43.439 61.6466L44.556 60.5021L45.7114 61.6272C46.424 62.345 47.3484 63.0045 48.1187 63.3731Z" fill="white"/>
<path d="M46.8092 26.0311C46.9055 32.1999 47.098 33.6936 48.1572 36.4676C48.8505 38.2911 49.9482 40.0564 51.5081 41.841C54.8012 45.585 56.0915 47.0205 56.1493 46.9623C56.1878 46.9235 56.4382 46.0894 56.7078 45.0806C57.5937 41.7635 58.3062 41.0263 60.6364 41.0263C61.7727 41.0263 63.3326 41.3173 64.3725 41.7247C64.7191 41.8604 64.7191 41.7829 64.6036 40.5219C64.411 38.6209 63.9296 35.7305 63.5251 34.1398C63.3326 33.3832 63.1978 32.7625 63.2363 32.7237C63.2748 32.6849 63.7755 33.6548 64.3532 34.8575C65.4317 37.0884 66.3561 39.6684 66.8183 41.7053C67.0301 42.6364 67.1649 42.8886 67.6271 43.1408C68.8789 43.8197 70.9973 45.3134 72.0372 46.2446L73.1156 47.2339L73.5393 46.7101C74.1941 45.876 75.1955 43.5869 75.5422 42.1708C76.871 36.7198 74.04 30.7256 68.4937 27.195C65.2006 25.1 62.4852 24.1882 58.9995 24.0136C57.2085 23.9166 56.573 23.8197 56.1878 23.5481C55.4175 23.0049 52.7406 21.7052 51.6814 21.3754C50.7763 21.065 47.618 20.4637 47.021 20.4637C46.7706 20.4637 46.7514 21.2202 46.8092 26.0311ZM56.5345 36.2348C57.1892 36.9138 57.2663 37.7285 56.7463 38.5045C56.3611 39.0864 56.1686 39.1834 55.4175 39.2416C53.8961 39.3386 53.0102 38.0583 53.665 36.7198C54.262 35.5365 55.6293 35.3037 56.5345 36.2348Z" fill="white"/>
<path d="M98.9792 45.9143C96.726 47.1946 94.1454 49.3284 91.9307 51.8115C90.9871 52.859 90.1975 53.7514 90.1783 53.7901C90.159 53.8095 89.3309 53.5768 88.3488 53.2664C83.515 51.7145 78.8545 51.6951 74.1363 53.2276L72.4416 53.7708L71.2476 52.3934C69.7647 50.7058 67.473 48.6107 65.9709 47.5826C64.8732 46.826 62.0423 45.2935 61.7534 45.2935C61.5223 45.2935 61.2142 46.6708 60.906 49.2703C60.5209 52.3546 60.6557 56.7969 61.1949 59.9201L61.5801 62.054L60.9253 63.4119C60.0779 65.2548 59.3654 67.5826 59.115 69.4255C58.884 71.1326 58.8454 74.0036 59.0573 74.314C59.1343 74.4304 59.8469 74.5856 60.6364 74.6632C64.0066 74.9735 68.8981 76.2539 71.6135 77.573L72.6727 78.0773L71.2284 77.9997C70.4388 77.9609 68.0123 77.6506 65.8361 77.3402C63.6599 77.0104 61.3297 76.6806 60.6557 76.6224L59.4232 76.4866L59.558 77.0298C59.635 77.3402 60.0779 78.4071 60.5401 79.3964C61.3105 81.0065 61.4453 81.1811 61.8304 81.0841C64.0836 80.5992 70.2847 80.2694 71.9987 80.5604L73.0579 80.735L72.4801 80.9677C72.172 81.1035 69.8418 81.6079 67.319 82.1123L62.7163 83.024L63.8525 84.1297C67.0494 87.2917 71.9602 89.7359 76.7939 90.5701C79.4323 91.0163 83.592 90.9775 86.1533 90.4925C90.9101 89.5614 95.532 87.2529 98.6518 84.2655L99.9999 82.9852L97.2075 82.4614C93.2596 81.7243 89.639 80.9677 89.5428 80.8707C89.042 80.3858 94.0876 80.2694 97.8045 80.6768C99.3451 80.8513 100.751 81.0453 100.924 81.1035C101.309 81.2199 101.887 80.1724 102.696 77.9027L103.197 76.4866L101.906 76.6224C100.52 76.7582 97.1112 77.2238 92.7203 77.8833C91.2567 78.1161 90.0049 78.2325 89.9472 78.1937C89.7353 77.9803 93.1633 76.5254 95.2046 75.9629C97.4193 75.3421 101.637 74.5856 102.869 74.5856H103.582V72.1995C103.582 70.6476 103.447 69.2315 103.216 68.0676C102.889 66.4381 102.638 65.7398 101.463 62.9851L101.021 61.9376L101.348 60.1917C101.964 56.9521 102.118 54.2169 101.868 51.0355C101.637 48.0675 101.213 45.3517 100.924 45.0607C100.847 44.9831 99.9806 45.3711 98.9792 45.9143ZM74.1171 66.0501C74.5022 66.1471 75.08 66.5157 75.4073 66.8649C77.2946 68.8629 76.0236 72.0637 73.3467 72.0637C69.9573 72.0637 69.11 67.2722 72.2875 66.1471C73.2312 65.8173 73.2697 65.8173 74.1171 66.0501ZM90.8716 66.3799C92.3352 67.2335 92.7781 69.4449 91.7574 70.7834C91.0064 71.7921 90.2553 72.1219 89.0035 72.0249C88.1947 71.9473 87.848 71.8115 87.3859 71.3654C86.2496 70.279 85.9608 69.0569 86.5192 67.7378C87.1933 66.1277 89.3117 65.4682 90.8716 66.3799ZM83.5535 73.7126C85.2675 74.605 84.8823 77.185 82.918 77.9803L82.1477 78.2907L82.244 79.6292C82.4173 81.8601 83.6498 83.1792 85.6526 83.2568C86.2496 83.2762 86.7503 83.2956 86.7889 83.315C86.8081 83.315 86.6926 83.5284 86.5192 83.7999C86.3459 84.0715 85.8645 84.3819 85.46 84.5177C84.4009 84.8281 83.3417 84.4595 82.2054 83.3926L81.2811 82.5196L80.8189 83.121C80.2411 83.9163 78.7775 84.6729 77.7953 84.6729C77.2561 84.6729 76.871 84.5177 76.4473 84.1685C76.1199 83.8969 75.8503 83.5866 75.8503 83.4896C75.8503 83.3926 76.2354 83.315 76.7169 83.315C77.6605 83.315 78.7775 82.927 79.3938 82.3838C80.01 81.8407 80.4722 80.5798 80.4722 79.4352V78.3683L79.5863 77.8833C78.5272 77.3208 77.9687 76.506 77.9687 75.5361C77.9687 74.7601 78.5272 73.8872 79.2012 73.6156C79.9137 73.3246 82.9372 73.3828 83.5535 73.7126Z" fill="white"/>
</svg>
