<svg width="527" height="131" viewBox="0 0 527 131" fill="none" xmlns="http://www.w3.org/2000/svg">
<path d="M155.056 85.5556L145.012 13.3018H129L144.503 104.433H168.012L183.514 13.3018H167.502L157.531 85.5556C157.24 87.7688 155.347 87.7688 155.056 85.5556Z" fill="#4A3AFF"/>
<path d="M193.893 77.8749H220.677V71.8862C220.677 49.3639 213.69 38.0376 200.88 38.0376C188.07 38.0376 180.355 49.3639 180.355 71.8862C180.355 94.2784 188.07 105.735 200.88 105.735C211.215 105.735 218.202 98.3142 220.531 83.7333H206.63C205.392 87.5087 203.427 89.5917 200.88 89.5917C196.586 89.5917 194.548 85.2955 193.893 77.8749ZM194.038 64.8561C194.766 58.0864 196.804 54.1808 200.88 54.1808C204.956 54.1808 206.557 58.0864 207.139 64.8561H194.038Z" fill="#4A3AFF"/>
<path d="M246.722 105.735C256.766 105.735 263.898 99.7464 263.898 81.39V70.5845H249.342V81.2599C249.342 84.9051 248.032 86.8579 246.503 86.8579C244.902 86.8579 243.592 84.9051 243.592 81.2599V57.8262H263.898V39.3396H236.023C235.513 39.3396 234.931 38.4283 234.931 37.3868C234.931 36.4755 235.513 35.434 236.023 35.434C240.972 35.434 243.592 30.7473 243.592 22.4153H229.035C229.035 33.8717 226.997 39.3396 222.485 39.3396V57.8262H229.035V81.39C229.035 99.7464 236.168 105.735 246.722 105.735Z" fill="#4A3AFF"/>
<path d="M282.499 74.62H267.214C267.214 97.9235 275.366 105.735 289.704 105.735C302.514 105.735 310.593 97.9235 310.593 76.703C310.593 41.8128 283.008 56.0033 283.008 39.2091C283.008 34.3922 285.774 31.6583 289.413 31.6583C293.562 31.6583 295.891 35.8242 295.891 43.1147H311.175C311.175 22.2848 304.115 12 288.758 12C275.221 12 267.724 22.2848 267.724 40.3808C267.724 76.703 295.454 61.8617 295.454 77.8747C295.454 83.0822 292.616 85.8161 289.195 85.8161C283.736 85.8161 282.499 80.7388 282.499 74.62Z" fill="#4A3AFF"/>
<path d="M334.799 98.9651L327.957 39.3394H312.673L322.135 99.2254H334.726L334.071 104.433C333.27 109.771 331.96 112.505 329.777 112.505C327.739 112.505 326.574 111.203 326.283 107.818H312.382C312.382 123.05 319.151 130.47 329.85 130.47C338.802 130.47 344.697 122.399 347.609 104.433L357.798 39.3394H342.514L334.799 98.9651Z" fill="#4A3AFF"/>
<path d="M395.156 84.7748C395.156 58.0864 372.885 68.1108 372.885 57.9562C372.885 54.8317 374.413 53.3997 376.742 53.3997C380.527 53.3997 381.4 56.6544 381.4 60.56H394.865C394.865 45.4583 389.698 38.0376 376.233 38.0376C365.679 38.0376 359.347 45.4583 359.347 58.6072C359.347 84.7748 381.255 76.0522 381.255 85.4257C381.255 88.5502 379.29 90.3728 377.033 90.3728C373.176 90.3728 372.448 87.1181 372.448 83.3427H358.547C358.547 100.137 365.825 105.735 377.688 105.735C388.388 105.735 395.156 100.137 395.156 84.7748Z" fill="#4A3AFF"/>
<path d="M423.612 13.3018H399.667V104.433H414.951V73.1878H423.612C435.694 73.1878 442.39 61.471 442.39 43.2448C442.39 25.0186 435.694 13.3018 423.612 13.3018ZM414.951 52.3579V34.1317H421.72C425.941 34.1317 427.834 36.8656 427.834 43.2448C427.834 49.624 425.941 52.3579 421.72 52.3579H414.951Z" fill="#4A3AFF"/>
<path d="M454.819 67.1995C456.566 55.8732 457.657 50.4054 459.914 39.3395H445.575V104.433H460.132V68.1108C460.132 62.7732 461.66 59.5185 464.281 59.5185C466.755 59.5185 467.92 62.2524 467.92 67.0693V75.2711H482.112V60.0392C482.112 48.7129 479.638 38.0376 472.141 38.0376C465.955 38.0376 459.55 46.63 457.002 67.1995C456.857 68.3712 456.347 69.2825 455.692 69.2825C455.037 69.2825 454.673 68.5014 454.819 67.1995Z" fill="#4A3AFF"/>
<path d="M505.747 105.735C518.994 105.735 527 94.2784 527 71.8862C527 49.3639 518.994 38.0376 505.747 38.0376C492.428 38.0376 484.422 49.3639 484.422 71.8862C484.422 94.2784 492.428 105.735 505.747 105.735ZM498.979 71.8862C498.979 63.2939 501.381 57.9562 505.747 57.9562C510.042 57.9562 512.443 63.2939 512.443 71.8862C512.443 80.4786 510.042 85.8163 505.747 85.8163C501.381 85.8163 498.979 80.4786 498.979 71.8862Z" fill="#4A3AFF"/>
<path d="M53.6072 0.124397C34.2144 2.12246 17.4984 12.8499 7.83088 29.494C3.3245 37.2341 0.878726 45.2458 0.166179 54.4796C-0.469336 62.6852 0.724662 71.3176 3.63263 79.7367C4.53775 82.3749 7.6383 88.5631 9.41004 91.2789C17.9028 104.276 31.0176 113.529 45.827 116.963C50.9881 118.146 52.6443 118.321 58.3255 118.34C61.1371 118.34 63.9295 118.262 64.5266 118.185L65.6435 118.03L64.6806 116.575C60.906 110.949 59.7698 103.81 61.5223 96.8075C61.9845 94.9647 63.2363 91.6863 63.8525 90.7357C64.0066 90.4836 64.1029 90.2508 64.0644 90.212C64.0258 90.1926 63.4866 89.7464 62.8511 89.242C62.2156 88.7377 61.2912 87.9229 60.7712 87.4186L59.8661 86.5456L59.2113 87.2052C55.8989 90.6387 52.9332 93.8977 51.9703 95.1974C49.2164 98.8832 47.9261 102.821 47.9261 107.593C47.9261 110.096 48.1572 109.96 45.0374 109.242C41.9369 108.524 41.3784 108.311 41.3784 107.865C41.3591 106.643 40.9354 103.597 40.6081 102.356C39.5489 98.5146 37.989 96.1868 33.1937 91.3759C31.1716 89.339 29.0532 87.0694 28.4948 86.3322C27.1082 84.47 25.4905 81.114 24.8742 78.7667C24.3928 76.9627 24.3543 76.5553 24.3543 72.8501C24.3735 68.7958 24.4698 68.0393 25.4905 64.7415C25.7409 63.9849 25.3172 64.2953 24.1232 65.8278C21.6581 68.9316 20.0212 71.8414 18.5383 75.7211C17.2288 79.1353 15.9578 84.4118 15.9578 86.468C15.9578 86.8754 15.9 87.2052 15.823 87.2052C15.5534 87.2052 13.6661 83.8104 12.5106 81.2692C9.02488 73.5873 7.7731 67.6319 7.7731 58.8831C7.79236 53.5096 8.0042 51.3952 9.00562 47.2244L9.52559 45.013L9.17894 43.8491C7.79236 39.3098 9.23672 33.0246 12.7224 28.4659C15.2645 25.1293 19.4627 22.1031 23.4877 20.7064C24.8742 20.2215 25.4712 19.8529 27.2045 18.4562C34.5803 12.5202 42.7457 9.0672 52.8369 7.63169C55.456 7.24372 62.7163 7.32131 65.4509 7.72869C72.5572 8.83441 79.1049 11.1041 84.6319 14.363C88.6954 16.7879 92.3929 19.7171 95.8016 23.2089C100.135 27.6899 102.812 31.5309 105.354 36.9043C108.685 43.9461 110.322 51.3564 110.322 59.271C110.322 70.6969 107.01 81.0752 100.674 89.533C98.7096 92.1324 96.8993 94.0141 96.7645 93.5873C96.2253 92.0742 95.8401 91.0849 95.7631 91.0849C95.7053 91.0849 94.7809 91.5117 93.7025 92.0354C86.4807 95.566 77.7568 95.8182 70.3617 92.7338C69.4566 92.3652 68.6478 92.0548 68.5515 92.0548C68.0508 92.0548 66.3561 96.3032 65.7976 98.9414C65.4894 100.454 65.4894 105.207 65.8168 106.701C66.4909 109.999 67.8582 112.85 69.8033 115.081C71.5557 117.079 71.3824 117.04 74.2519 116.245C83.7268 113.646 91.7382 109.203 99.3258 102.356C106.066 96.2644 112.152 86.7396 115.021 77.7968C119.874 62.5882 118.776 46.7395 111.882 32.9276C106.297 21.7346 97.4771 12.7142 86.2496 6.73936C80.087 3.46098 73.6934 1.42411 66.2983 0.376579C63.7755 0.0274048 56.053 -0.127785 53.6072 0.124397Z" fill="#4A3AFF"/>
<path d="M39.7415 20.6673C38.7978 20.8613 37.5075 21.2105 36.8913 21.4238C35.6973 21.8506 33.0011 23.2861 32.8086 23.5965C32.7315 23.6935 32.019 23.7711 31.2101 23.7711C26.0682 23.7905 19.9442 26.7585 16.7474 30.8128C12.2795 36.419 12.4143 43.0534 17.094 48.7566C17.8643 49.7072 20.1753 51.7052 20.4834 51.7052C20.599 51.7052 20.9071 50.2503 21.2152 48.2523C22.1781 41.9283 23.1603 38.2813 24.9898 34.3628C26.0297 32.1125 26.4149 31.7246 25.7794 33.5286C24.855 36.1863 24.3735 42.7042 24.7972 46.9137C25.4905 53.8003 27.8015 59.7557 30.7479 62.2775C31.9227 63.3056 33.0011 63.8876 34.6766 64.4696L36.275 65.0127L36.4098 66.3124C36.8335 70.5802 39.4141 73.5676 43.2657 74.2465C48.0224 75.0613 52.1051 71.7829 52.7791 66.5646C52.8947 65.6335 53.0873 64.8381 53.2028 64.7993C53.3184 64.7606 54.1272 64.5472 55.0131 64.295C56.8233 63.7906 56.7078 64.0428 56.3611 61.2882C56.1878 59.7363 56.0915 59.4647 55.8412 59.5617C55.0901 59.8527 53.3761 60.2407 52.8177 60.2407C50.1601 60.2407 46.8669 57.6994 46.0774 55.0418C45.6729 53.6839 45.7114 53.3153 46.347 53.1989C47.2136 53.0243 48.7542 51.8604 49.2164 51.0263C50.9304 47.9613 47.5795 44.8769 43.4197 45.6528C41.3399 46.0408 40.0303 47.3017 39.8763 49.0476C39.7415 50.8129 40.7621 52.2872 42.7842 53.1213C43.2849 53.3347 43.6894 53.6257 43.6894 53.7809C43.6894 53.9167 43.516 54.5374 43.3042 55.1194C42.4954 57.4472 40.4347 59.3677 38.1045 59.9691C36.0439 60.4928 34.3107 59.9109 32.7123 58.165C30.7287 55.9729 30.4206 52.2096 31.9805 49.1058C32.6352 47.7867 34.3299 45.4976 36.0054 43.6548C40.7236 38.4365 42.0139 35.6819 42.5339 29.5907C42.7265 27.2047 42.765 21.1135 42.5724 20.5121C42.4761 20.2017 41.8406 20.2405 39.7415 20.6673ZM35.2736 36.2057C36.3906 37.4278 35.5625 39.1543 33.8292 39.1543C33.4056 39.1543 33.0782 38.9991 32.6738 38.5529C32.0382 37.8157 31.9805 37.1174 32.5004 36.2445C33.1167 35.2551 34.3685 35.2163 35.2736 36.2057ZM48.1187 63.1893C48.812 63.519 49.3897 63.81 49.4282 63.8294C49.5438 63.9264 48.8698 66.5064 48.5039 67.3212C47.4062 69.7266 44.9219 70.6384 42.7072 69.4162C41.2628 68.6403 40.377 67.0496 39.934 64.489L39.7992 63.7906L41.051 63.1893C41.8598 62.8207 42.7072 62.1999 43.439 61.4628L44.556 60.3182L45.7114 61.4434C46.424 62.1611 47.3484 62.8207 48.1187 63.1893Z" fill="#4A3AFF"/>
<path d="M46.8092 25.8473C46.9055 32.0161 47.098 33.5098 48.1572 36.2838C48.8505 38.1072 49.9482 39.8725 51.5081 41.6572C54.8012 45.4012 56.0915 46.8367 56.1493 46.7785C56.1878 46.7397 56.4382 45.9055 56.7078 44.8968C57.5937 41.5796 58.3062 40.8425 60.6364 40.8425C61.7727 40.8425 63.3326 41.1334 64.3725 41.5408C64.7191 41.6766 64.7191 41.599 64.6036 40.3381C64.411 38.437 63.9296 35.5466 63.5251 33.9559C63.3326 33.1994 63.1978 32.5786 63.2363 32.5398C63.2748 32.501 63.7755 33.471 64.3532 34.6737C65.4317 36.9045 66.3561 39.4846 66.8183 41.5214C67.0301 42.4526 67.1649 42.7047 67.6271 42.9569C68.8789 43.6359 70.9973 45.1296 72.0372 46.0607L73.1156 47.05L73.5393 46.5263C74.1941 45.6921 75.1955 43.4031 75.5422 41.987C76.871 36.536 74.04 30.5418 68.4937 27.0112C65.2006 24.9161 62.4852 24.0044 58.9995 23.8298C57.2085 23.7328 56.573 23.6358 56.1878 23.3642C55.4175 22.8211 52.7406 21.5214 51.6814 21.1916C50.7763 20.8812 47.618 20.2798 47.021 20.2798C46.7706 20.2798 46.7514 21.0364 46.8092 25.8473ZM56.5345 36.051C57.1892 36.7299 57.2663 37.5447 56.7463 38.3206C56.3611 38.9026 56.1686 38.9996 55.4175 39.0578C53.8961 39.1548 53.0102 37.8745 53.665 36.536C54.262 35.3526 55.6293 35.1198 56.5345 36.051Z" fill="#4A3AFF"/>
<path d="M98.9792 45.7304C96.726 47.0108 94.1454 49.1446 91.9307 51.6276C90.9871 52.6752 90.1975 53.5675 90.1783 53.6063C90.159 53.6257 89.3309 53.3929 88.3488 53.0825C83.515 51.5307 78.8545 51.5113 74.1363 53.0438L72.4416 53.5869L71.2476 52.2096C69.7647 50.5219 67.473 48.4269 65.9709 47.3987C64.8732 46.6422 62.0423 45.1097 61.7534 45.1097C61.5223 45.1097 61.2142 46.487 60.906 49.0864C60.5209 52.1708 60.6557 56.6131 61.1949 59.7363L61.5801 61.8702L60.9253 63.2281C60.0779 65.0709 59.3654 67.3988 59.115 69.2417C58.884 70.9488 58.8454 73.8198 59.0573 74.1301C59.1343 74.2465 59.8469 74.4017 60.6364 74.4793C64.0066 74.7897 68.8981 76.07 71.6135 77.3891L72.6727 77.8935L71.2284 77.8159C70.4388 77.7771 68.0123 77.4667 65.8361 77.1563C63.6599 76.8266 61.3297 76.4968 60.6557 76.4386L59.4232 76.3028L59.558 76.846C59.635 77.1563 60.0779 78.2233 60.5401 79.2126C61.3105 80.8227 61.4453 80.9973 61.8304 80.9003C64.0836 80.4153 70.2847 80.0855 71.9987 80.3765L73.0579 80.5511L72.4801 80.7839C72.172 80.9197 69.8418 81.4241 67.319 81.9284L62.7163 82.8402L63.8525 83.9459C67.0494 87.1079 71.9602 89.5521 76.7939 90.3863C79.4323 90.8324 83.592 90.7936 86.1533 90.3087C90.9101 89.3775 95.532 87.0691 98.6518 84.0817L99.9999 82.8014L97.2075 82.2776C93.2596 81.5404 89.639 80.7839 89.5428 80.6869C89.042 80.2019 94.0877 80.0855 97.8045 80.4929C99.3451 80.6675 100.751 80.8615 100.924 80.9197C101.309 81.0361 101.887 79.9886 102.696 77.7189L103.197 76.3028L101.906 76.4386C100.52 76.5744 97.1112 77.0399 92.7203 77.6995C91.2567 77.9323 90.0049 78.0487 89.9472 78.0099C89.7353 77.7965 93.1633 76.3416 95.2046 75.779C97.4193 75.1583 101.637 74.4017 102.869 74.4017H103.582V72.0157C103.582 70.4638 103.447 69.0477 103.216 67.8838C102.889 66.2543 102.638 65.5559 101.463 62.8013L101.021 61.7538L101.348 60.0079C101.964 56.7683 102.118 54.0331 101.868 50.8517C101.637 47.8837 101.213 45.1679 100.924 44.8769C100.847 44.7993 99.9806 45.1873 98.9792 45.7304ZM74.1171 65.8663C74.5022 65.9633 75.08 66.3319 75.4074 66.681C77.2946 68.6791 76.0236 71.8799 73.3467 71.8799C69.9573 71.8799 69.11 67.0884 72.2875 65.9633C73.2312 65.6335 73.2697 65.6335 74.1171 65.8663ZM90.8716 66.1961C92.3352 67.0496 92.7781 69.2611 91.7574 70.5996C91.0064 71.6083 90.2553 71.9381 89.0035 71.8411C88.1947 71.7635 87.848 71.6277 87.3859 71.1815C86.2496 70.0952 85.9608 68.8731 86.5192 67.554C87.1933 65.9439 89.3117 65.2843 90.8716 66.1961ZM83.5535 73.5288C85.2675 74.4211 84.8823 77.0012 82.918 77.7965L82.1477 78.1069L82.244 79.4454C82.4173 81.6762 83.6498 82.9953 85.6526 83.0729C86.2496 83.0923 86.7503 83.1117 86.7889 83.1311C86.8081 83.1311 86.6926 83.3445 86.5192 83.6161C86.3459 83.8877 85.8645 84.1981 85.46 84.3339C84.4009 84.6442 83.3417 84.2757 82.2054 83.2087L81.2811 82.3358L80.8189 82.9372C80.2411 83.7325 78.7775 84.489 77.7953 84.489C77.2561 84.489 76.871 84.3339 76.4473 83.9847C76.1199 83.7131 75.8503 83.4027 75.8503 83.3057C75.8503 83.2087 76.2354 83.1311 76.7169 83.1311C77.6605 83.1311 78.7775 82.7432 79.3938 82.2C80.01 81.6568 80.4722 80.3959 80.4722 79.2514V78.1845L79.5863 77.6995C78.5272 77.1369 77.9687 76.3222 77.9687 75.3523C77.9687 74.5763 78.5272 73.7034 79.2012 73.4318C79.9137 73.1408 82.9372 73.199 83.5535 73.5288Z" fill="#4A3AFF"/>
</svg>
