<svg width="350" height="350" viewBox="0 0 350 350" fill="none" xmlns="http://www.w3.org/2000/svg">
<path d="M159.005 0.367737C101.483 6.27719 51.9021 38.0045 23.2272 87.2308C9.8608 110.123 2.60639 133.818 0.492904 161.127C-1.3921 185.396 2.14942 210.927 10.7747 235.827C13.4594 243.63 22.656 261.932 27.9111 269.964C53.1016 308.404 92.0012 335.771 135.928 345.927C151.236 349.426 156.148 349.943 172.999 350C181.339 350 189.622 349.771 191.392 349.541L194.705 349.082L191.849 344.779C180.653 328.141 177.283 307.027 182.481 286.316C183.852 280.865 187.565 271.169 189.393 268.358C189.85 267.612 190.136 266.924 190.021 266.809C189.907 266.751 188.308 265.432 186.423 263.94C184.538 262.449 181.796 260.039 180.254 258.547L177.569 255.965L175.627 257.916C165.802 268.071 157.005 277.71 154.149 281.554C145.981 292.455 142.154 304.101 142.154 318.215C142.154 325.616 142.839 325.215 133.586 323.092C124.389 320.969 122.732 320.338 122.732 319.018C122.675 315.404 121.419 306.396 120.448 302.724C117.306 291.365 112.679 284.48 98.4559 270.251C92.4582 264.227 86.1749 257.514 84.5183 255.334C80.4056 249.826 75.6074 239.901 73.7795 232.959C72.3515 227.623 72.2373 226.418 72.2373 215.46C72.2944 203.469 72.58 201.231 75.6074 191.478C76.35 189.24 75.0933 190.158 71.5518 194.691C64.2403 203.87 59.385 212.476 54.9866 223.951C51.1024 234.049 47.3324 249.654 47.3324 255.736C47.3324 256.941 47.161 257.916 46.9325 257.916C46.1328 257.916 40.5349 247.876 37.1077 240.36C26.7687 217.64 23.0558 200.026 23.0558 174.151C23.1129 158.259 23.7413 152.005 26.7116 139.67L28.2539 133.129L27.2257 129.687C23.1129 116.262 27.397 97.6727 37.736 84.19C45.276 74.3218 57.7284 65.3716 69.6668 61.2407C73.7795 59.8064 75.5503 58.7163 80.6912 54.5854C102.569 37.0292 126.788 26.8168 156.72 22.5712C164.488 21.4237 186.023 21.6532 194.134 22.858C215.212 26.1283 234.633 32.841 251.027 42.4797C263.079 49.6513 274.047 58.3147 284.157 68.6418C297.01 81.8951 304.949 93.2549 312.489 109.147C322.371 129.974 327.227 151.89 327.227 175.299C327.227 209.091 317.402 239.786 298.609 264.801C292.783 272.489 287.413 278.054 287.013 276.792C285.414 272.317 284.272 269.391 284.043 269.391C283.872 269.391 281.13 270.653 277.931 272.202C256.511 282.644 230.635 283.39 208.7 274.267C206.015 273.177 203.616 272.259 203.331 272.259C201.845 272.259 196.819 284.824 195.162 292.627C194.248 297.102 194.248 311.158 195.219 315.576C197.219 325.33 201.274 333.763 207.044 340.361C212.242 346.271 211.727 346.156 220.239 343.804C248.342 336.116 272.105 322.977 294.61 302.724C314.603 284.709 332.653 256.539 341.164 230.09C355.559 185.109 352.303 138.236 331.854 97.3858C315.288 64.2815 289.127 37.6029 255.825 19.932C237.546 10.2359 218.582 4.21176 196.647 1.11359C189.165 0.0808716 166.259 -0.378113 159.005 0.367737Z" fill="#4A3AFF"/>
<path d="M117.874 61.125C115.075 61.6987 111.248 62.7315 109.42 63.3626C105.879 64.6248 97.882 68.8704 97.3108 69.7884C97.0823 70.0752 94.9688 70.3047 92.5697 70.3047C77.3183 70.3621 59.1537 79.1402 49.6716 91.1312C36.4194 107.712 36.8193 127.334 50.6998 144.201C52.9846 147.013 59.8392 152.922 60.7531 152.922C61.0959 152.922 62.0098 148.619 62.9237 142.71C65.7798 124.006 68.693 113.22 74.1195 101.63C77.2041 94.9752 78.3465 93.8277 76.4615 99.1634C73.7197 107.024 72.2916 126.301 73.5483 138.751C75.6047 159.118 82.4592 176.732 91.1988 184.191C94.6832 187.231 97.882 188.952 102.852 190.674L107.593 192.28L107.992 196.124C109.249 208.746 116.903 217.582 128.328 219.59C142.437 221.999 154.546 212.303 156.546 196.87C156.888 194.116 157.46 191.764 157.802 191.649C158.145 191.534 160.544 190.903 163.172 190.157C168.541 188.666 168.198 189.411 167.17 181.264C166.656 176.675 166.37 175.871 165.628 176.158C163.4 177.019 158.316 178.166 156.66 178.166C148.777 178.166 139.009 170.65 136.667 162.79C135.468 158.774 135.582 157.684 137.467 157.34C140.038 156.823 144.607 153.381 145.978 150.914C151.062 141.849 141.123 132.727 128.785 135.022C122.616 136.169 118.731 139.898 118.274 145.062C117.874 150.283 120.902 154.643 126.9 157.11C128.385 157.741 129.584 158.602 129.584 159.061C129.584 159.463 129.07 161.299 128.442 163.02C126.043 169.905 119.931 175.585 113.019 177.363C106.907 178.912 101.766 177.191 97.0252 172.027C91.1417 165.544 90.2277 154.414 94.8545 145.234C96.7967 141.333 101.823 134.563 106.793 129.112C120.788 113.679 124.615 105.532 126.157 87.5167C126.728 80.4598 126.842 62.4446 126.271 60.666C125.986 59.7481 124.101 59.8628 117.874 61.125ZM104.622 107.081C107.935 110.695 105.479 115.802 100.338 115.802C99.0815 115.802 98.1105 115.343 96.9109 114.023C95.0259 111.843 94.8545 109.777 96.3968 107.196C98.2247 104.27 101.938 104.155 104.622 107.081ZM142.722 186.887C144.779 187.862 146.492 188.723 146.606 188.78C146.949 189.067 144.95 196.698 143.865 199.108C140.609 206.222 133.24 208.918 126.671 205.304C122.387 203.009 119.759 198.304 118.446 190.731L118.046 188.666L121.759 186.887C124.158 185.797 126.671 183.961 128.842 181.781L132.155 178.396L135.582 181.723C137.696 183.846 140.437 185.797 142.722 186.887Z" fill="#4A3AFF"/>
<path d="M138.838 76.4454C139.124 94.6901 139.695 99.1078 142.837 107.312C144.893 112.705 148.149 117.926 152.776 123.205C162.543 134.278 166.371 138.523 166.542 138.351C166.656 138.236 167.399 135.769 168.198 132.786C170.826 122.975 172.94 120.795 179.851 120.795C183.221 120.795 187.848 121.655 190.933 122.86C191.961 123.262 191.961 123.032 191.618 119.303C191.047 113.681 189.619 105.132 188.419 100.427C187.848 98.1898 187.448 96.3539 187.563 96.2392C187.677 96.1244 189.162 98.9931 190.876 102.55C194.074 109.148 196.816 116.779 198.187 122.803C198.815 125.557 199.215 126.303 200.586 127.049C204.299 129.057 210.582 133.474 213.667 136.228L216.866 139.154L218.122 137.605C220.065 135.138 223.035 128.368 224.063 124.18C228.004 108.058 219.608 90.3297 203.157 79.8878C193.389 73.6915 185.335 70.9949 174.996 70.4786C169.684 70.1917 167.799 69.9049 166.656 69.1016C164.371 67.4952 156.431 63.6512 153.29 62.6758C150.605 61.7579 141.237 59.9793 139.466 59.9793C138.724 59.9793 138.667 62.2168 138.838 76.4454ZM167.684 106.624C169.626 108.632 169.855 111.041 168.313 113.336C167.17 115.058 166.599 115.344 164.371 115.517C159.859 115.803 157.231 112.017 159.173 108.058C160.944 104.558 165 103.87 167.684 106.624Z" fill="#4A3AFF"/>
<path d="M293.583 135.252C286.9 139.039 279.246 145.35 272.677 152.693C269.878 155.792 267.536 158.431 267.479 158.546C267.422 158.603 264.965 157.914 262.052 156.996C247.715 152.407 233.891 152.349 219.897 156.882L214.87 158.488L211.328 154.415C206.93 149.423 200.133 143.227 195.677 140.186C192.421 137.949 184.024 133.416 183.168 133.416C182.482 133.416 181.568 137.49 180.654 145.178C179.512 154.3 179.912 167.438 181.511 176.675L182.653 182.986L180.711 187.003C178.198 192.453 176.085 199.338 175.342 204.788C174.657 209.837 174.542 218.328 175.171 219.246C175.399 219.591 177.513 220.05 179.855 220.279C189.851 221.197 204.36 224.984 212.414 228.885L215.555 230.377L211.271 230.147C208.929 230.032 201.732 229.115 195.277 228.197C188.823 227.221 181.911 226.246 179.912 226.074L176.256 225.672L176.656 227.279C176.884 228.197 178.198 231.352 179.569 234.278C181.854 239.04 182.254 239.556 183.396 239.27C190.079 237.835 208.472 236.86 213.556 237.721L216.698 238.237L214.984 238.925C214.07 239.327 207.159 240.819 199.676 242.31L186.024 245.007L189.394 248.277C198.876 257.629 213.442 264.858 227.779 267.325C235.605 268.645 247.943 268.53 255.54 267.096C269.649 264.342 283.358 257.514 292.612 248.679L296.61 244.892L288.328 243.343C276.618 241.163 265.879 238.925 265.594 238.638C264.108 237.204 279.074 236.86 290.099 238.065C294.668 238.581 298.838 239.155 299.352 239.327C300.495 239.671 302.208 236.573 304.607 229.86L306.093 225.672L302.266 226.074C298.153 226.475 288.042 227.852 275.019 229.803C270.677 230.491 266.965 230.836 266.793 230.721C266.165 230.09 276.332 225.787 282.387 224.123C288.956 222.287 301.466 220.05 305.122 220.05H307.235V212.993C307.235 208.403 306.835 204.215 306.15 200.772C305.179 195.953 304.436 193.887 300.952 185.74L299.638 182.642L300.609 177.479C302.437 167.897 302.894 159.808 302.151 150.399C301.466 141.62 300.209 133.588 299.352 132.728C299.124 132.498 296.553 133.646 293.583 135.252ZM219.839 194.805C220.982 195.092 222.696 196.182 223.667 197.215C229.264 203.124 225.494 212.591 217.555 212.591C207.501 212.591 204.988 198.42 214.413 195.092C217.212 194.117 217.326 194.117 219.839 194.805ZM269.535 195.781C273.876 198.305 275.19 204.846 272.163 208.804C269.935 211.788 267.707 212.763 263.994 212.476C261.595 212.247 260.567 211.845 259.196 210.526C255.826 207.313 254.969 203.698 256.626 199.797C258.625 195.035 264.908 193.084 269.535 195.781ZM247.829 217.468C252.913 220.107 251.77 227.738 245.944 230.09L243.659 231.008L243.945 234.967C244.459 241.565 248.115 245.466 254.055 245.695C255.826 245.753 257.311 245.81 257.425 245.867C257.482 245.867 257.14 246.499 256.626 247.302C256.111 248.105 254.683 249.023 253.484 249.425C250.342 250.343 247.201 249.253 243.83 246.097L241.089 243.515L239.718 245.294C238.004 247.646 233.663 249.884 230.75 249.884C229.15 249.884 228.008 249.425 226.751 248.392C225.78 247.589 224.98 246.671 224.98 246.384C224.98 246.097 226.123 245.867 227.551 245.867C230.35 245.867 233.663 244.72 235.491 243.114C237.319 241.507 238.689 237.778 238.689 234.393V231.237L236.062 229.803C232.92 228.139 231.264 225.73 231.264 222.861C231.264 220.566 232.92 217.984 234.919 217.181C237.033 216.32 246.001 216.492 247.829 217.468Z" fill="#4A3AFF"/>
</svg>
